<?xml version="1.0" standalone="no"?>
<!DOCTYPE svg PUBLIC "-//W3C//DTD SVG 20010904//EN"
 "http://www.w3.org/TR/2001/REC-SVG-20010904/DTD/svg10.dtd">
<svg version="1.0" xmlns="http://www.w3.org/2000/svg"
 width="523.000000pt" height="523.000000pt" viewBox="0 0 523.000000 523.000000"
 preserveAspectRatio="xMidYMid meet">
<metadata>
Created by potrace 1.11, written by Peter Selinger 2001-2013
</metadata>
<g transform="translate(0.000000,523.000000) scale(0.100000,-0.100000)"
fill="#000000" stroke="none">
<path d="M3613 5109 c-33 -12 -31 -56 2 -71 34 -15 61 8 51 45 -7 30 -23 37
-53 26z"/>
<path d="M1624 4800 l0 -281 30 3 31 3 -1 82 c-1 96 -7 91 113 91 l82 1 63
-90 c58 -82 66 -89 97 -89 31 0 33 1 20 19 -8 11 -37 53 -66 94 l-52 74 36 24
c50 33 75 71 83 121 13 90 -21 162 -93 201 -37 19 -61 22 -192 25 l-150 4 -1
-282z m309 210 c62 -30 91 -143 50 -197 -36 -50 -78 -63 -193 -63 l-105 0 1
133 c1 72 2 136 3 140 2 13 213 1 244 -13z"/>
<path d="M2298 4937 c-51 -12 -113 -69 -134 -122 -24 -65 -15 -155 23 -209 38
-56 106 -88 183 -88 96 0 189 56 145 88 -13 10 -23 8 -52 -12 -44 -30 -121
-32 -173 -6 -37 18 -80 74 -80 103 0 18 11 19 176 19 l175 0 -4 43 c-7 55 -19
86 -51 124 -46 55 -130 79 -208 60z m150 -76 c29 -20 61 -86 48 -99 -4 -3 -69
-6 -146 -6 -134 -1 -140 0 -140 19 0 16 44 95 53 95 1 0 19 6 40 14 47 16 103
7 145 -23z"/>
<path d="M2815 4943 c-83 -17 -133 -54 -164 -124 -50 -110 -1 -240 108 -286
76 -32 187 -13 234 40 22 25 21 29 -2 44 -16 10 -22 9 -32 -3 -48 -58 -159
-61 -222 -5 -73 63 -55 214 30 264 57 33 154 19 192 -27 10 -12 16 -13 32 -3
24 15 24 28 -1 49 -46 40 -121 61 -175 51z"/>
<path d="M3238 4940 c-127 -23 -202 -180 -143 -304 59 -124 243 -160 348 -68
16 14 16 17 1 33 -16 18 -18 18 -44 -1 -64 -46 -165 -41 -218 11 -36 35 -58
88 -39 94 7 3 86 6 177 7 l165 3 -3 44 c-8 122 -117 203 -244 181z m124 -68
c28 -16 74 -94 65 -109 -4 -6 -223 -9 -284 -4 -18 2 6 67 36 94 49 46 125 54
183 19z"/>
<path d="M3600 4730 l0 -210 30 0 30 0 0 210 0 210 -30 0 -30 0 0 -210z"/>
<path d="M1193 4545 c-94 -40 -144 -165 -103 -259 10 -22 52 -75 94 -117 41
-42 72 -79 69 -83 -4 -4 1 -4 12 0 15 6 17 4 12 -10 -4 -9 -3 -15 2 -11 11 6
97 -75 93 -88 -1 -4 1 -6 6 -3 4 2 22 -10 40 -28 l32 -33 -23 -21 -22 -21
-175 171 c-96 94 -190 177 -209 185 -88 38 -191 1 -231 -82 -28 -58 -24 -137
8 -182 12 -17 18 -34 14 -38 -4 -5 -2 -5 4 -2 13 8 67 -46 57 -57 -5 -4 -1 -6
7 -4 8 1 14 -3 12 -10 -1 -6 2 -11 6 -10 5 2 46 -35 92 -80 65 -66 80 -86 69
-94 -11 -8 -10 -9 3 -4 12 4 33 -9 63 -39 l46 -44 -17 -32 -16 -33 -87 91
c-304 322 -317 333 -400 333 -61 0 -123 -32 -157 -82 -25 -36 -29 -50 -27
-107 2 -85 5 -111 15 -105 8 5 12 -11 9 -29 -1 -5 2 -6 7 -3 5 3 19 -6 30 -19
12 -14 20 -25 17 -25 -2 0 16 -20 40 -44 25 -24 45 -46 45 -49 0 -2 29 -34 65
-71 37 -38 63 -72 59 -78 -4 -6 -3 -8 3 -5 14 9 37 -19 27 -34 -4 -8 -3 -9 5
-5 17 11 51 -30 46 -55 -2 -11 0 -17 6 -14 5 4 6 12 2 18 -3 7 3 4 15 -7 12
-10 19 -23 15 -29 -3 -5 -2 -7 4 -4 5 3 18 -6 29 -20 10 -15 30 -37 44 -51 16
-16 21 -26 13 -29 -9 -3 -9 -12 -3 -29 6 -14 6 -23 1 -20 -4 3 -14 -27 -20
-67 -10 -65 -14 -95 -25 -205 -2 -17 0 -35 6 -38 5 -4 5 -10 0 -17 -20 -26 0
-295 32 -416 9 -36 10 -53 2 -61 -8 -8 -6 -9 8 -4 13 5 17 4 13 -3 -8 -13 12
-75 27 -85 8 -5 7 -8 -2 -8 -8 0 -9 -5 -3 -17 5 -10 24 -54 42 -98 18 -44 36
-84 41 -89 4 -6 8 -18 8 -27 0 -10 5 -19 10 -21 6 -2 12 -13 13 -25 0 -12 5
-19 9 -17 4 3 8 -2 8 -10 0 -9 5 -16 11 -16 5 0 7 -4 4 -10 -3 -5 -1 -10 5
-10 6 0 8 -4 5 -10 -3 -5 -2 -10 4 -10 10 0 27 -39 22 -54 -1 -5 6 -3 15 5 16
13 16 12 5 -10 -7 -13 -8 -21 -3 -17 10 6 72 -73 72 -91 0 -5 -35 -40 -77 -79
-43 -38 -102 -92 -133 -121 -31 -29 -67 -62 -80 -73 -133 -115 -222 -207 -245
-254 -26 -54 -47 -177 -33 -198 4 -7 8 -21 8 -32 0 -10 11 -41 25 -68 14 -27
22 -54 19 -59 -3 -5 -1 -8 4 -7 5 2 24 -12 41 -29 17 -18 38 -33 45 -33 8 0
16 -3 18 -7 5 -12 77 -43 99 -43 13 0 18 -4 13 -12 -4 -6 -3 -8 2 -5 6 3 42 7
82 9 40 1 72 7 72 11 0 5 9 7 20 4 11 -3 18 -2 15 3 -4 7 8 12 43 20 4 1 11 8
15 16 4 8 15 14 24 14 9 0 13 3 10 7 -4 3 5 15 20 25 16 10 24 18 19 18 -5 0
12 21 39 48 26 26 55 46 64 44 12 -2 13 -1 3 6 -9 6 3 25 45 70 31 34 64 62
72 62 11 0 12 3 4 8 -6 4 32 6 85 4 53 -2 102 -8 109 -14 10 -8 12 -7 8 3 -4
12 17 14 122 12 89 -2 129 -7 135 -15 6 -10 8 -10 8 0 0 17 226 17 233 0 4
-10 6 -10 6 0 1 7 15 12 36 12 21 0 35 -5 35 -12 0 -10 2 -10 9 0 11 18 221
18 233 0 6 -10 8 -10 8 0 0 17 226 17 233 0 4 -10 6 -10 6 0 1 9 31 12 116 12
85 0 115 -3 115 -12 0 -10 2 -10 8 -1 11 17 48 21 44 4 -2 -11 0 -12 10 -4 7
6 28 13 46 15 27 4 32 2 27 -11 -5 -13 -4 -14 6 -3 9 8 51 12 136 12 92 0 123
-3 123 -12 0 -10 2 -10 8 -1 7 11 49 16 130 14 32 -1 41 -4 36 -13 -5 -8 0 -7
11 2 17 14 18 13 12 -2 -4 -13 -2 -15 10 -11 12 5 15 2 10 -10 -3 -9 -1 -19 5
-23 7 -4 8 -3 4 4 -4 7 -3 12 1 12 12 0 79 -82 75 -93 -1 -5 1 -6 6 -3 10 6
72 -57 72 -75 0 -7 3 -10 6 -7 9 10 141 -139 136 -154 -1 -5 1 -7 6 -4 12 7
54 -38 45 -48 -4 -4 -1 -5 7 -2 17 6 41 -10 59 -39 9 -14 11 -15 7 -3 -4 15
-2 16 36 2 23 -8 48 -20 57 -27 12 -9 13 -9 7 1 -4 6 -2 12 3 12 6 0 11 -6 11
-12 0 -9 4 -8 10 2 9 13 11 13 20 0 6 -9 10 -10 10 -3 0 6 12 12 28 12 55 2
77 6 91 19 7 7 20 11 28 8 9 -4 11 -2 7 6 -5 8 -2 9 9 5 10 -4 16 -2 14 5 -1
6 4 13 12 16 9 3 11 0 6 -8 -5 -9 -4 -11 4 -6 6 4 9 11 6 16 -3 5 12 23 32 40
21 18 31 29 23 24 -8 -4 -3 8 11 27 23 30 32 52 46 109 17 71 0 173 -39 239
-11 20 -54 68 -94 106 -72 69 -73 72 -94 155 -12 47 -39 121 -60 165 -44 88
-125 199 -140 190 -6 -3 -7 0 -4 8 3 8 -9 23 -30 38 -19 13 -32 27 -30 31 3 4
0 8 -5 8 -17 0 -13 24 9 48 11 12 20 26 20 31 0 6 6 14 14 18 8 4 14 10 14 13
-2 8 35 84 48 100 7 8 13 17 13 20 0 18 15 39 24 33 5 -3 7 -1 4 4 -8 13 16
76 25 67 4 -3 4 3 1 15 -3 12 -1 21 4 21 5 0 10 6 10 13 0 6 10 39 21 73 12
33 23 71 26 85 2 13 11 52 19 87 18 74 17 68 17 88 0 8 3 13 8 11 4 -3 7 12 7
34 0 21 -4 39 -8 39 -5 0 -5 6 0 12 4 7 9 20 10 28 5 28 4 264 -2 315 -3 28
-6 58 -6 68 0 9 -4 15 -9 12 -4 -3 -6 3 -4 12 4 16 -5 70 -36 208 -5 24 -5 41
1 43 5 2 9 10 9 17 0 8 8 19 18 24 9 6 14 11 9 11 -4 0 7 21 25 48 18 26 53
88 78 137 25 50 47 92 50 95 3 3 6 12 6 20 2 18 37 113 44 120 3 3 6 12 6 20
1 8 9 51 19 95 16 77 23 251 11 304 -24 107 -68 196 -125 252 -197 196 -599
173 -994 -57 l-80 -46 -36 17 c-78 37 -270 98 -345 109 -21 4 -41 8 -45 10
-31 18 -386 27 -511 13 -85 -10 -263 -51 -255 -59 4 -3 0 -6 -7 -5 -40 1 -59
-4 -52 -15 4 -7 3 -8 -5 -4 -19 12 -281 -96 -281 -116 0 -17 -50 19 -141 102
-50 47 -97 90 -103 95 -6 6 -47 42 -91 80 -44 39 -82 73 -85 77 -3 4 -23 14
-44 23 -42 18 -111 17 -153 0z m103 -161 c-3 -8 0 -11 9 -8 8 3 35 -16 65 -45
28 -28 55 -51 60 -51 5 0 13 -6 17 -14 4 -7 36 -37 70 -66 35 -28 62 -56 60
-63 -1 -6 3 -11 8 -12 21 -1 36 -18 30 -32 -4 -12 -3 -13 8 -5 8 7 17 9 20 6
7 -7 -15 -44 -26 -44 -5 0 -15 -7 -23 -15 -9 -8 -18 -15 -22 -15 -7 0 -63 52
-249 232 -95 92 -113 126 -77 146 22 12 56 3 50 -14z m2884 -99 c43 -9 70 -22
70 -36 0 -6 4 -8 9 -4 26 15 133 -127 116 -155 -3 -4 0 -10 7 -12 18 -6 19
-200 1 -282 -28 -135 -82 -269 -161 -405 l-25 -43 -17 31 c-9 18 -20 28 -25
24 -4 -4 -5 -3 -2 4 10 16 -3 44 -16 36 -6 -3 -7 -1 -3 5 7 11 -38 100 -57
113 -5 3 -9 10 -9 15 -1 17 -25 44 -33 36 -5 -4 -5 -1 -1 5 9 16 -33 75 -47
66 -6 -3 -7 -1 -4 5 4 5 -10 32 -32 59 -48 60 -191 207 -191 197 0 -5 -7 2
-16 14 -9 14 -22 21 -31 18 -8 -3 -12 -2 -8 3 7 13 -136 123 -152 117 -7 -3
-10 1 -7 8 3 8 -4 16 -18 20 -21 6 -21 7 -5 17 9 5 22 7 29 3 6 -4 8 -3 5 3
-6 9 9 21 33 28 3 0 24 11 48 23 23 12 42 19 42 15 0 -5 4 -2 9 5 4 7 18 14
29 15 12 1 22 5 22 9 0 4 3 7 8 7 4 -1 9 0 12 1 3 1 12 3 20 5 8 2 42 11 75
21 33 9 82 17 108 19 27 2 50 5 52 7 5 4 115 -7 165 -17z m-972 -100 c-3 -3
-9 2 -12 12 -6 14 -5 15 5 6 7 -7 10 -15 7 -18z m-1084 -81 c3 -8 2 -12 -4 -9
-6 3 -10 10 -10 16 0 14 7 11 14 -7z m520 5 c4 6 12 9 17 5 6 -3 40 -8 76 -10
36 -2 73 -10 81 -16 13 -11 14 -11 7 1 -6 11 -3 13 16 7 13 -4 42 -9 64 -12
22 -3 45 -10 52 -16 9 -8 13 -7 13 3 1 11 3 11 13 -1 7 -8 28 -15 49 -15 20 0
36 -4 35 -10 -1 -5 6 -9 17 -7 11 2 16 -1 13 -10 -2 -7 -10 -12 -16 -10 -6 1
-10 -2 -9 -6 2 -5 -23 -42 -55 -82 -64 -81 -128 -205 -151 -294 -17 -66 -29
-78 -62 -66 -27 10 -27 11 -174 14 -81 2 -139 -2 -195 -15 -44 -9 -80 -16 -81
-16 0 1 -9 20 -19 42 -45 100 -106 173 -253 304 -40 35 -72 67 -72 71 0 13 58
32 71 24 8 -5 9 -3 4 6 -6 10 -4 12 9 7 10 -4 15 -3 11 3 -3 6 3 11 14 11 37
2 42 4 49 14 4 6 14 12 22 14 8 2 24 6 34 9 14 4 17 1 12 -9 -4 -8 -1 -6 7 4
8 9 22 17 31 17 10 0 14 5 10 12 -4 7 -3 8 5 4 21 -13 62 -15 52 -2 -7 8 6 11
42 11 29 0 60 3 70 8 11 5 17 4 17 -4 0 -8 4 -8 13 -1 6 5 38 10 70 10 32 0
61 2 64 6 4 3 10 1 14 -5 5 -8 8 -8 13 0z m-1540 -162 c72 -71 130 -134 128
-139 -1 -4 4 -7 10 -6 7 2 12 -3 10 -9 -1 -7 4 -13 12 -13 7 0 19 -6 25 -14 9
-10 7 -19 -8 -37 l-19 -23 -117 119 c-64 66 -141 145 -171 176 -39 39 -53 60
-48 72 11 31 42 9 178 -126z m2195 -5 c13 -2 29 -8 35 -13 6 -5 33 -23 59 -39
30 -19 45 -35 41 -42 -5 -8 -2 -9 10 -5 19 8 58 -22 49 -36 -4 -6 0 -8 9 -5 8
4 22 -1 30 -10 8 -10 25 -25 37 -35 12 -10 19 -23 15 -29 -5 -7 -3 -8 5 -4 14
9 53 -22 45 -36 -3 -4 -2 -8 3 -7 18 3 36 -1 30 -8 -4 -3 2 -13 13 -20 11 -8
18 -18 15 -23 -3 -4 2 -11 11 -14 14 -5 14 -9 3 -24 -10 -13 -7 -12 10 3 14
11 21 14 17 7 -5 -8 0 -20 13 -31 22 -19 30 -47 9 -35 -7 4 -8 3 -4 -4 4 -6
13 -9 21 -6 7 3 18 -3 24 -15 14 -26 14 -34 -1 -25 -8 4 -10 3 -5 -2 5 -5 12
-9 16 -9 21 0 76 -89 66 -105 -4 -6 -1 -9 7 -8 7 2 12 -3 11 -9 -2 -7 2 -13 8
-13 5 0 8 -4 5 -9 -3 -5 1 -14 9 -21 8 -7 15 -19 15 -27 0 -8 4 -12 8 -9 7 4
9 -3 14 -58 1 -14 5 -23 10 -20 6 4 30 -63 32 -91 2 -19 -109 -106 -179 -140
-94 -47 -187 -69 -270 -66 -28 1 -32 6 -44 49 -17 58 -92 212 -103 212 -4 0
-8 6 -8 13 0 6 -10 24 -23 39 -12 15 -35 43 -50 63 -16 19 -33 32 -39 29 -6
-4 -8 -3 -5 3 12 19 -129 131 -221 177 -47 24 -53 30 -49 54 14 85 62 206 78
196 5 -3 6 1 3 9 -8 21 99 156 119 149 5 -1 6 1 3 6 -7 12 33 44 45 37 5 -4 9
-3 8 2 -3 18 1 28 9 18 4 -5 18 -12 31 -13z m-1366 -116 c36 -33 63 -64 60
-69 -3 -6 -2 -7 4 -4 12 7 79 -50 76 -64 -2 -5 2 -8 8 -6 15 3 81 -82 73 -94
-3 -5 2 -9 11 -9 9 0 13 -4 10 -10 -3 -5 -2 -10 2 -10 14 0 35 -64 23 -68 -6
-2 -17 -10 -24 -18 -8 -8 -17 -14 -21 -14 -15 0 -74 -48 -67 -55 4 -5 2 -5 -5
-1 -7 3 -25 -6 -41 -21 -15 -16 -42 -39 -58 -53 -47 -40 -116 -129 -109 -140
4 -6 1 -9 -6 -8 -16 4 -122 -203 -123 -241 -1 -16 -4 -27 -7 -25 -4 2 -13 -29
-20 -69 -14 -71 -15 -72 -45 -73 -47 -2 -153 29 -214 61 -75 40 -229 194 -226
228 0 14 4 23 9 20 4 -2 7 7 7 21 0 14 5 28 10 31 6 4 8 12 4 18 -3 7 8 -2 24
-19 16 -17 43 -37 61 -45 18 -8 29 -19 26 -27 -3 -8 0 -10 8 -5 12 7 28 10
104 15 23 1 40 5 37 9 -2 4 10 12 26 19 16 7 27 16 24 21 -3 5 -1 9 4 9 20 0
49 77 47 126 -3 65 -22 100 -100 182 -56 59 -77 93 -52 84 5 -1 6 1 4 5 -3 5
2 17 10 28 15 19 15 19 10 -10 -5 -27 -4 -28 9 -10 12 17 19 14 15 -8 0 -4 3
-6 8 -5 10 3 51 -40 51 -54 0 -4 3 -7 8 -6 4 2 21 -9 37 -24 32 -30 111 -62
128 -51 6 4 7 1 2 -8 -8 -12 -6 -12 8 0 9 7 26 11 37 8 11 -3 20 -1 20 5 0 6
7 7 16 4 8 -3 13 -2 10 3 -3 5 8 14 24 21 16 7 27 16 24 21 -3 5 -1 9 4 9 16
0 43 67 46 114 5 64 -20 111 -102 190 -40 38 -72 72 -72 75 0 3 16 16 36 29
20 13 33 18 30 10 -4 -7 -1 -5 6 5 7 9 16 16 19 15 3 -2 36 -30 72 -62z
m-1183 -127 c49 -50 87 -96 83 -102 -3 -5 -1 -7 4 -4 13 8 46 -27 36 -37 -5
-4 -3 -6 3 -4 13 4 95 -73 88 -84 -3 -4 1 -8 8 -8 14 0 44 -40 40 -53 -1 -5 2
-6 6 -3 24 14 50 -50 29 -70 -4 -4 -7 -15 -7 -25 0 -29 -23 -28 -51 2 -14 16
-41 46 -60 66 -19 21 -74 83 -124 138 -125 140 -157 176 -177 197 -10 10 -18
24 -18 32 0 16 27 46 41 46 5 0 50 -41 99 -91z m949 -19 c6 0 11 -7 11 -15 0
-8 6 -15 13 -15 6 0 27 -16 44 -35 29 -31 31 -38 21 -55 -7 -11 -20 -20 -29
-20 -15 0 -159 130 -159 143 0 4 10 15 22 27 l22 20 22 -25 c12 -14 26 -25 33
-25z m-278 -359 c38 -36 50 -55 47 -72 -6 -42 -39 -34 -93 21 -27 27 -44 50
-37 50 7 0 11 3 10 8 -1 8 12 42 18 42 2 0 27 -22 55 -49z m1170 0 c8 11 12
10 26 -6 10 -13 14 -15 10 -4 -4 14 2 15 46 11 29 -2 58 -10 66 -16 12 -9 13
-8 6 3 -6 11 -5 12 6 5 8 -4 23 -10 34 -11 35 -5 73 -24 79 -39 4 -10 2 -13
-7 -8 -8 6 -8 3 1 -9 21 -25 24 -96 6 -149 -17 -51 -47 -85 -193 -218 -117
-106 -117 -106 -144 -83 -119 102 -159 160 -159 236 -1 23 7 78 17 122 9 44
17 92 17 107 -1 22 5 28 29 33 18 4 27 11 22 18 -3 7 4 3 17 -8 13 -11 20 -14
16 -7 -4 7 -2 12 6 13 46 4 71 9 76 14 4 3 8 1 11 -6 2 -8 6 -7 12 2z m-368
-173 c-20 -75 -7 -216 24 -265 8 -12 12 -27 8 -33 -4 -6 -1 -9 7 -8 7 2 12 -5
12 -14 -1 -10 2 -16 6 -13 10 6 61 -61 52 -69 -3 -4 2 -4 12 0 14 5 17 4 12
-4 -4 -7 -1 -12 7 -12 7 0 26 -13 40 -30 15 -16 32 -30 38 -30 6 0 9 -7 6 -14
-4 -10 -1 -13 9 -9 10 3 12 0 9 -10 -4 -8 1 -17 9 -20 9 -4 16 -11 16 -17 0
-6 -4 -8 -10 -5 -5 3 -10 1 -10 -5 0 -6 6 -10 13 -9 34 4 55 -5 92 -38 22 -20
39 -40 37 -45 -1 -5 1 -7 6 -4 15 9 50 -38 38 -50 -6 -6 -25 -26 -42 -45 -17
-20 -35 -39 -42 -42 -6 -4 -29 13 -54 40 -24 25 -68 74 -99 107 -31 34 -68 75
-83 91 -121 135 -194 186 -292 204 -41 8 -84 31 -58 31 6 0 10 15 9 34 0 19 2
33 5 31 10 -6 27 29 25 52 -1 12 1 21 4 19 3 -1 14 5 24 16 11 12 13 18 5 18
-9 0 -8 3 2 9 8 6 18 7 22 5 4 -3 5 2 2 10 -3 8 3 23 13 34 10 10 31 35 47 55
16 20 33 34 37 31 5 -3 9 -1 9 5 0 8 38 51 45 51 1 0 -4 -24 -12 -52z m842 3
c-3 -2 4 -11 15 -18 11 -8 17 -19 14 -25 -4 -6 -2 -8 4 -4 6 3 13 2 17 -4 4
-6 10 -8 15 -5 4 3 7 -6 6 -20 -2 -13 0 -23 3 -20 4 2 13 0 21 -6 10 -6 11 -9
3 -9 -7 0 -13 -4 -13 -10 0 -5 5 -9 12 -7 6 1 22 -18 34 -43 l23 -44 -55 -17
c-95 -30 -122 -51 -293 -237 -51 -56 -96 -102 -100 -102 -3 0 -28 20 -55 45
l-48 46 22 19 c12 11 27 17 32 14 4 -3 7 0 6 8 -2 7 3 12 10 10 6 -1 11 4 10
10 -2 7 3 12 10 10 6 -1 11 4 10 10 -2 7 4 12 13 12 9 -1 16 4 15 10 -2 18 92
99 105 90 7 -4 9 -3 5 4 -3 6 13 30 36 53 24 24 37 39 30 35 -11 -7 -11 -4 -1
12 7 12 17 18 21 16 5 -3 8 -2 6 3 -1 4 5 28 12 53 16 55 19 67 22 106 2 28 4
30 20 21 9 -6 15 -13 13 -16z m-1144 -68 c13 -16 12 -17 -3 -4 -17 13 -22 21
-14 21 2 0 10 -8 17 -17z m0 -120 c13 -16 12 -17 -3 -4 -10 7 -18 15 -18 17 0
8 8 3 21 -13z m2115 -59 c-5 -13 -3 -14 6 -6 14 11 16 -7 20 -208 3 -158 -7
-240 -51 -420 -15 -60 -82 -222 -122 -292 -21 -38 -35 -68 -31 -68 4 0 -1 -5
-10 -11 -10 -5 -18 -14 -18 -20 0 -21 -42 -54 -70 -54 -15 0 -26 3 -24 6 3 6
-107 32 -141 33 -5 1 -50 40 -98 89 -48 48 -94 87 -102 87 -7 0 -15 4 -17 8
-1 4 -30 25 -63 45 -33 20 -85 60 -116 89 -30 29 -93 87 -140 129 -46 42 -103
95 -127 117 l-43 41 28 32 c64 73 96 104 105 101 5 -1 7 1 4 6 -8 14 81 105
95 96 9 -5 10 -2 6 9 -4 10 3 21 19 31 13 9 24 14 24 10 0 -4 6 -1 14 5 7 6
22 8 31 4 13 -4 16 -3 11 5 -5 8 1 11 18 10 20 -2 26 -8 26 -26 0 -16 4 -21
13 -16 9 6 9 4 1 -7 -21 -27 4 -149 31 -149 8 0 17 -9 20 -21 6 -17 9 -18 23
-7 12 10 14 10 8 1 -4 -8 -1 -13 9 -13 10 0 13 -5 9 -12 -4 -7 -3 -8 4 -4 12
7 48 17 70 18 6 1 12 5 12 10 0 4 9 8 21 8 11 0 17 5 14 10 -3 6 -2 10 3 10
16 0 39 69 37 116 0 24 1 44 4 45 40 6 99 3 109 -4 9 -7 11 -5 6 8 -6 15 -4
16 16 5 12 -7 20 -8 16 -2 -9 14 30 22 45 8 9 -8 10 -8 5 1 -6 10 15 23 37 23
4 0 21 7 37 15 17 9 30 12 30 8 0 -5 4 -2 9 5 4 7 17 14 29 15 12 0 24 7 27
15 3 7 9 10 15 7 5 -3 10 -1 10 5 0 6 5 8 10 5 6 -3 10 -2 10 3 0 8 69 62 78
62 2 0 1 -7 -2 -16z m-2749 -142 c13 -13 23 -19 23 -15 0 4 6 1 13 -7 7 -8 25
-21 40 -28 15 -6 26 -16 23 -21 -3 -5 0 -9 7 -8 32 1 48 -4 42 -14 -4 -6 -1
-10 6 -8 32 4 47 -2 58 -23 6 -13 9 -15 7 -5 -5 14 -1 16 22 11 15 -4 32 -10
37 -13 6 -4 35 -8 65 -9 60 -3 72 -10 76 -44 2 -13 5 -36 8 -53 3 -16 8 -49
12 -72 4 -24 10 -43 15 -43 5 0 6 -6 3 -14 -3 -7 2 -20 10 -28 11 -12 12 -18
3 -28 -9 -10 -9 -11 1 -6 11 7 16 -7 15 -42 -1 -7 1 -11 4 -8 7 6 57 -95 54
-107 -1 -5 3 -6 8 -3 5 3 12 -2 16 -11 7 -19 8 -17 -189 -198 -166 -152 -181
-164 -190 -162 -12 4 -83 104 -96 135 -5 12 -13 22 -18 22 -5 0 -9 6 -9 13 -1
23 -50 117 -58 109 -5 -4 -5 -2 -2 5 11 18 -4 45 -21 38 -11 -4 -12 -2 -4 7 7
10 5 28 -9 68 -24 67 -31 92 -45 170 -4 19 -9 39 -12 45 -9 14 -12 56 -16 220
-3 83 -2 165 1 183 l5 34 36 -34 c20 -18 47 -43 59 -56z m-193 -94 c-3 -4 -9
-8 -15 -8 -5 0 -9 4 -9 8 0 5 7 9 15 9 8 0 12 -4 9 -9z m954 -29 c18 -6 29
-16 25 -22 -3 -6 -1 -7 6 -3 13 9 79 -37 88 -62 4 -8 19 -27 35 -42 l28 -28
-47 -45 c-95 -89 -116 -105 -130 -100 -8 3 -12 8 -9 11 3 2 -1 17 -9 32 -35
67 -51 126 -60 218 -5 50 -4 52 18 52 13 0 38 -5 55 -11z m308 -298 c33 -32
59 -66 56 -73 -1 -5 4 -7 11 -5 6 1 11 -4 10 -10 -2 -7 4 -13 12 -13 22 0 11
-16 -58 -90 -48 -50 -62 -60 -80 -54 -12 4 -23 6 -24 5 -3 -1 -7 2 -80 68
l-42 38 71 64 c39 35 76 69 82 76 15 17 19 16 42 -6z m494 -50 c19 -19 34 -39
32 -45 -2 -6 0 -8 3 -4 11 11 45 -10 45 -28 0 -8 5 -12 10 -9 6 3 10 2 10 -4
0 -6 -15 -10 -32 -10 -34 0 -97 -6 -159 -16 -33 -6 -39 -3 -62 26 l-26 33 37
39 c20 22 45 48 55 59 21 22 24 20 87 -41z m1240 -55 c0 -2 -7 -7 -16 -10 -8
-3 -12 -2 -9 4 6 10 25 14 25 6z m-1124 -161 c-1 -8 -5 -17 -8 -21 -5 -4 -4
16 1 34 3 9 9 -1 7 -13z m1168 -47 c-3 -4 -9 -8 -15 -8 -5 0 -9 4 -9 8 0 5 7
9 15 9 8 0 12 -4 9 -9z m-2160 -20 c-3 -4 1 -8 9 -8 19 0 49 -34 40 -45 -5 -4
-2 -5 4 -1 8 4 24 -4 38 -18 29 -30 35 -31 55 -13 12 10 12 9 0 -6 -12 -17
-12 -20 4 -29 17 -10 17 -12 -8 -37 -28 -28 -71 -74 -122 -133 -17 -20 -42
-39 -55 -43 -59 -19 -150 -66 -144 -75 3 -5 0 -7 -8 -4 -8 3 -21 -2 -30 -10
-9 -9 -20 -16 -26 -16 -6 0 -11 -5 -11 -10 0 -15 -42 15 -95 67 -43 43 -44 47
-29 64 9 10 21 16 27 12 5 -3 7 -2 4 4 -3 5 8 22 26 39 17 16 27 23 22 15 -5
-10 -4 -12 3 -7 7 4 12 14 12 23 0 10 5 13 17 9 10 -4 15 -4 11 -1 -9 9 23 45
40 45 7 0 11 4 8 9 -5 8 23 39 31 34 1 -2 4 0 5 5 1 4 19 21 39 38 20 17 48
42 61 57 20 21 27 24 38 14 10 -9 11 -9 6 1 -9 16 -1 29 18 29 8 0 13 -4 10
-9z m1020 -105 c20 -17 20 -17 6 1 -14 18 -13 19 14 12 15 -4 41 -10 57 -13
16 -3 29 -8 29 -12 0 -4 8 -7 18 -7 22 -1 46 -7 52 -14 3 -3 25 -18 50 -33 68
-40 131 -102 118 -115 -8 -8 -4 -9 13 -5 22 6 23 5 9 -12 -8 -10 -10 -16 -4
-12 16 9 38 -19 28 -35 -5 -8 -1 -8 11 2 10 8 16 10 12 3 -11 -18 46 -56 90
-60 21 -2 41 -9 45 -16 6 -9 8 -9 8 1 0 6 10 12 21 12 19 0 20 -2 8 -17 -13
-15 -12 -15 6 -6 32 17 97 -20 80 -46 -3 -6 0 -8 9 -5 16 6 129 -93 121 -107
-3 -4 0 -11 6 -15 8 -4 9 -3 5 4 -13 22 7 12 33 -15 15 -16 52 -50 84 -77 31
-26 55 -52 52 -56 -3 -5 0 -12 6 -16 8 -5 9 -3 4 7 -8 12 -6 12 8 0 10 -8 15
-16 12 -19 -8 -9 -387 -9 -411 -1 -11 4 -35 21 -52 38 -48 49 -92 41 -136 -23
-10 -15 -26 -20 -72 -20 -32 -1 -65 -5 -73 -10 -9 -6 -12 -5 -8 1 8 12 -292
11 -312 -1 -9 -6 -12 -5 -8 1 8 13 -292 12 -312 -1 -9 -6 -12 -5 -8 1 8 12
-452 11 -472 -1 -9 -6 -12 -5 -8 1 4 6 -55 9 -166 8 -194 -1 -206 0 -179 24
10 9 21 24 25 34 4 9 12 16 19 15 7 -2 12 4 13 12 0 8 7 15 15 15 8 1 14 7 12
14 -2 8 4 10 18 6 16 -5 19 -3 13 11 -4 11 -3 15 5 10 6 -3 15 1 20 10 5 9 20
17 34 17 15 1 24 5 22 8 -6 10 76 28 94 22 10 -4 13 -2 8 5 -4 7 -3 12 3 12 5
0 13 -5 16 -10 4 -7 11 -8 18 -1 7 5 29 9 50 9 38 0 38 0 20 -21 -18 -22 -18
-22 4 -4 12 11 27 16 34 11 8 -4 10 -3 5 4 -4 7 -2 12 3 12 6 0 11 -4 11 -8 0
-4 9 -8 20 -8 11 0 20 3 20 7 0 4 11 10 25 13 22 6 70 56 70 74 0 13 49 127
60 140 5 7 16 19 23 28 8 8 11 21 8 29 -3 9 0 12 9 8 8 -3 18 2 21 10 3 9 26
32 50 52 39 32 47 35 62 24 14 -11 15 -11 4 1 -10 12 -4 19 33 42 25 16 53 29
63 31 9 1 23 7 31 11 11 7 13 5 7 -9 -5 -15 -4 -16 9 -5 12 10 15 10 15 -4 0
-9 5 -16 11 -16 5 0 7 -5 3 -12 -4 -6 -3 -8 2 -5 9 5 94 -74 94 -86 0 -3 24
-29 53 -59 28 -30 81 -88 117 -127 36 -40 82 -90 103 -112 24 -24 36 -44 31
-51 -4 -7 -3 -10 1 -5 5 4 17 0 27 -9 10 -9 31 -17 48 -18 16 -1 30 -5 30 -9
0 -5 11 5 25 21 40 47 34 87 -23 148 -42 45 -178 194 -240 263 -13 14 -38 42
-56 61 -37 40 -50 60 -40 60 4 0 17 -8 28 -17z m-1699 -12 c-9 -8 -36 -10 -30
-2 2 4 11 8 20 8 8 0 13 -3 10 -6z m2550 -89 c-3 -3 -11 0 -18 7 -9 10 -8 11
6 5 10 -3 15 -9 12 -12z m0 -120 c-3 -3 -11 0 -18 7 -9 10 -8 11 6 5 10 -3 15
-9 12 -12z m-1595 -56 c0 -2 -8 -10 -17 -17 -16 -13 -17 -12 -4 4 13 16 21 21
21 13z m-855 -165 c-3 -5 0 -13 6 -17 8 -4 9 -3 5 4 -13 21 10 13 32 -11 12
-13 19 -27 15 -31 -5 -4 -3 -7 2 -6 24 5 35 -2 35 -22 0 -16 3 -19 9 -10 6 10
11 10 21 -3 9 -11 10 -19 3 -23 -5 -4 -15 -23 -23 -42 -7 -19 -19 -53 -27 -75
-8 -22 -16 -47 -18 -55 -9 -42 -30 -76 -82 -133 -32 -35 -98 -106 -146 -159
-72 -79 -97 -100 -135 -112 -93 -31 -179 8 -225 99 -21 43 -11 165 13 150 4
-3 7 3 6 13 0 9 5 16 12 14 6 -1 11 4 10 10 -2 7 3 12 10 10 8 -1 11 1 8 6 -3
5 15 28 40 51 24 24 44 40 44 36 0 -4 9 4 21 19 18 23 23 25 38 14 14 -11 14
-11 4 2 -9 12 -5 21 22 46 19 17 37 29 40 26 3 -3 5 0 5 7 0 7 5 9 10 6 6 -4
9 -1 8 7 -2 7 3 12 10 10 8 -1 11 2 8 7 -3 5 11 23 32 41 20 17 60 53 88 80
40 38 54 46 63 37 7 -7 12 -7 11 -2 -2 6 -2 18 -1 28 1 17 2 17 17 3 8 -9 13
-20 9 -25z m1025 -285 c0 -2 -8 -10 -17 -17 -16 -13 -17 -12 -4 4 13 16 21 21
21 13z m1545 -15 c3 -5 2 -12 -3 -15 -5 -3 -9 1 -9 9 0 17 3 19 12 6z m-1941
-97 c3 -8 2 -12 -4 -9 -6 3 -10 10 -10 16 0 14 7 11 14 -7z m266 -74 c0 -5 -2
-10 -4 -10 -3 0 -8 5 -11 10 -3 6 -1 10 4 10 6 0 11 -4 11 -10z m2086 -116
c45 -118 -40 -244 -164 -244 -77 0 -103 17 -219 146 -39 43 -91 102 -116 129
l-46 50 151 3 c115 2 153 -1 160 -10 6 -10 8 -10 8 0 0 7 14 12 34 12 19 0 37
-6 39 -12 3 -8 6 -5 6 6 1 18 6 19 56 1 18 -6 18 -5 2 5 -9 6 -15 15 -12 21
10 16 84 -62 101 -107z"/>
<path d="M1527 4169 c7 -7 15 -10 18 -7 3 3 -2 9 -12 12 -14 6 -15 5 -6 -5z"/>
<path d="M3926 4268 c3 -5 10 -6 15 -3 13 9 11 12 -6 12 -8 0 -12 -4 -9 -9z"/>
<path d="M4216 4257 c3 -10 9 -15 12 -12 3 3 0 11 -7 18 -10 9 -11 8 -5 -6z"/>
<path d="M3814 4252 c4 -3 14 -7 22 -8 9 -1 13 0 10 4 -4 3 -14 7 -22 8 -9 1
-13 0 -10 -4z"/>
<path d="M2650 4096 c0 -2 7 -7 16 -10 8 -3 12 -2 9 4 -6 10 -25 14 -25 6z"/>
<path d="M2295 4050 c-3 -5 -1 -10 4 -10 6 0 11 5 11 10 0 6 -2 10 -4 10 -3 0
-8 -4 -11 -10z"/>
<path d="M3010 4029 c0 -5 5 -7 10 -4 6 3 10 8 10 11 0 2 -4 4 -10 4 -5 0 -10
-5 -10 -11z"/>
<path d="M1866 3867 c3 -10 9 -15 12 -12 3 3 0 11 -7 18 -10 9 -11 8 -5 -6z"/>
<path d="M1435 3050 c-3 -6 1 -7 9 -4 18 7 21 14 7 14 -6 0 -13 -4 -16 -10z"/>
<path d="M2515 2560 c-4 -6 1 -7 11 -3 10 4 15 2 11 -4 -3 -5 0 -10 8 -10 11
0 12 4 4 14 -14 15 -26 17 -34 3z"/>
<path d="M2027 2629 c7 -7 15 -10 18 -7 3 3 -2 9 -12 12 -14 6 -15 5 -6 -5z"/>
<path d="M2130 2570 c0 -5 5 -10 11 -10 5 0 7 5 4 10 -3 6 -8 10 -11 10 -2 0
-4 -4 -4 -10z"/>
<path d="M2775 2330 c-3 -5 -1 -10 4 -10 6 0 11 5 11 10 0 6 -2 10 -4 10 -3 0
-8 -4 -11 -10z"/>
<path d="M3030 1891 c0 -6 4 -13 10 -16 6 -3 7 1 4 9 -7 18 -14 21 -14 7z"/>
<path d="M3150 1446 c0 -2 8 -10 18 -17 15 -13 16 -12 3 4 -13 16 -21 21 -21
13z"/>
<path d="M3253 1355 c0 -8 4 -12 9 -9 5 3 6 10 3 15 -9 13 -12 11 -12 -6z"/>
<path d="M3930 1290 c0 -5 5 -10 11 -10 5 0 7 5 4 10 -3 6 -8 10 -11 10 -2 0
-4 -4 -4 -10z"/>
<path d="M2015 931 c-3 -5 -2 -12 3 -15 5 -3 9 1 9 9 0 17 -3 19 -12 6z"/>
<path d="M2815 931 c-3 -5 -2 -12 3 -15 5 -3 9 1 9 9 0 17 -3 19 -12 6z"/>
<path d="M3203 873 c-10 -4 -13 -38 -13 -126 l0 -121 -27 26 c-42 39 -69 49
-131 50 -124 2 -212 -86 -212 -212 0 -147 130 -246 268 -205 24 8 58 26 73 41
l29 28 0 -38 c0 -35 2 -37 28 -34 l27 3 2 275 c1 151 0 284 -2 296 -4 20 -17
25 -42 17z m-76 -251 c53 -34 76 -130 48 -198 -28 -67 -69 -94 -143 -94 -89 0
-152 66 -152 160 0 134 135 206 247 132z"/>
<path d="M1548 792 c-14 -3 -18 -14 -18 -48 l0 -44 -39 0 c-33 0 -38 -3 -37
-22 1 -19 8 -24 39 -26 l37 -3 0 -142 c0 -153 6 -176 52 -210 48 -36 164 -20
156 21 -4 17 -13 18 -72 9 -21 -3 -36 2 -53 19 -22 22 -23 30 -23 163 l0 140
63 3 c54 3 62 5 62 23 0 18 -8 20 -62 23 l-63 3 0 43 c0 45 -10 56 -42 48z"/>
<path d="M1936 698 c-51 -11 -106 -38 -106 -52 1 -33 16 -37 64 -15 82 36 180
22 201 -29 4 -9 9 -32 11 -49 l4 -33 -82 0 c-155 -1 -209 -30 -214 -115 -2
-39 2 -51 27 -80 61 -69 208 -63 261 10 4 6 8 -5 8 -22 0 -29 3 -33 28 -33
l29 0 -1 158 c-1 138 -4 162 -22 192 -34 59 -119 87 -208 68z m172 -260 c6
-70 -79 -129 -163 -114 -96 18 -102 128 -7 146 15 3 59 5 97 5 l70 -1 3 -36z"/>
<path d="M2471 694 c-24 -7 -56 -24 -71 -39 l-27 -25 1 32 c1 29 -3 33 -26 36
l-28 3 -1 -100 c-2 -342 -3 -321 29 -321 l28 0 2 135 c1 101 5 142 17 165 46
88 196 95 240 10 8 -16 15 -32 15 -35 0 -3 0 -66 0 -140 l0 -135 29 0 29 0 -1
143 c0 146 -8 190 -45 230 -40 45 -120 62 -191 41z"/>
<path d="M3509 694 c-93 -28 -154 -119 -145 -219 11 -123 92 -197 217 -197
130 0 218 101 207 238 -11 132 -145 217 -279 178z m160 -72 c89 -64 77 -228
-20 -278 -42 -21 -111 -20 -151 2 -40 24 -78 94 -78 147 0 46 32 111 65 133
55 36 133 34 184 -4z"/>
<path d="M1236 648 c3 -5 10 -6 15 -3 13 9 11 12 -6 12 -8 0 -12 -4 -9 -9z"/>
<path d="M4096 477 c3 -10 9 -15 12 -12 3 3 0 11 -7 18 -10 9 -11 8 -5 -6z"/>
</g>
</svg>
